<?xml version="1.0" encoding="UTF-8" standalone="no"?>
<!-- Created with Inkscape (http://www.inkscape.org/) -->

<svg
   xmlns:dc="http://purl.org/dc/elements/1.1/"
   xmlns:cc="http://creativecommons.org/ns#"
   xmlns:rdf="http://www.w3.org/1999/02/22-rdf-syntax-ns#"
   xmlns:svg="http://www.w3.org/2000/svg"
   xmlns="http://www.w3.org/2000/svg"
   xmlns:sodipodi="http://sodipodi.sourceforge.net/DTD/sodipodi-0.dtd"
   xmlns:inkscape="http://www.inkscape.org/namespaces/inkscape"
   width="100.255mm"
   height="100.255mm"
   viewBox="0 0 100.255 100.255"
   version="1.1"
   id="svg8"
   sodipodi:docname="slight_thunder.svg"
   inkscape:version="0.92.5 (2060ec1f9f, 2020-04-08)">
  <defs
     id="defs2" />
  <sodipodi:namedview
     id="base"
     pagecolor="#ffffff"
     bordercolor="#666666"
     borderopacity="1.0"
     inkscape:pageopacity="0.0"
     inkscape:pageshadow="2"
     inkscape:zoom="1"
     inkscape:cx="-53.43028"
     inkscape:cy="227.01604"
     inkscape:document-units="mm"
     inkscape:current-layer="layer1"
     showgrid="false"
     inkscape:window-width="1366"
     inkscape:window-height="732"
     inkscape:window-x="0"
     inkscape:window-y="0"
     inkscape:window-maximized="1"
     showguides="false"
     inkscape:guide-bbox="true"
     inkscape:snap-global="false">
    <sodipodi:guide
       position="24.903906,26.789063"
       orientation="0,1"
       id="guide955"
       inkscape:locked="false" />
  </sodipodi:namedview>
  <metadata
     id="metadata5">
    <rdf:RDF>
      <cc:Work
         rdf:about="">
        <dc:format>image/svg+xml</dc:format>
        <dc:type
           rdf:resource="http://purl.org/dc/dcmitype/StillImage" />
        <dc:title />
      </cc:Work>
    </rdf:RDF>
  </metadata>
  <g
     inkscape:label="Layer 1"
     inkscape:groupmode="layer"
     id="layer1"
     transform="translate(-54.571909,-62.04214)">
    <path
       style="fill:#f5ffef;fill-opacity:0.94117647;stroke:#8e97ff;stroke-width:1.85208333;stroke-miterlimit:4;stroke-dasharray:none;stroke-opacity:1"
       d="M 101.93233,67.576169 A 16.933332,16.933332 0 0 0 84.998992,84.509503 16.933332,16.933332 0 0 0 85.295098,87.610089 39.158333,12.170833 0 0 0 70.182325,97.209503 39.158333,12.170833 0 0 0 109.34066,109.38034 39.158333,12.170833 0 0 0 148.49899,97.209503 39.158333,12.170833 0 0 0 137.3188,88.69736 10.451041,10.451041 0 0 0 137.3865,87.552211 10.451041,10.451041 0 0 0 126.93546,77.10117 10.451041,10.451041 0 0 0 118.55199,81.332434 16.933332,16.933332 0 0 0 101.93234,67.576169 Z"
       id="path980"
       inkscape:connector-curvature="0" />
    <path
       style="fill:#f6ff68;fill-opacity:1;stroke:#000000;stroke-width:0.23690912px;stroke-linecap:butt;stroke-linejoin:miter;stroke-opacity:1"
       d="m 121.19242,107.6074 -3.9776,8.4663 h 6.62933 l -5.03829,7.83132 10.60695,-9.73624 h -6.89453 l 5.12805,-7.08951 z"
       id="path1134-9"
       inkscape:connector-curvature="0" />
    <path
       style="fill:#f6ff68;fill-opacity:1;stroke:#000000;stroke-width:0.23507829px;stroke-linecap:butt;stroke-linejoin:miter;stroke-opacity:1"
       d="m 97.653782,108.53182 -3.979433,8.33213 h 6.632371 l -5.0406,7.7072 10.61181,-9.58193 h -6.897687 l 5.130407,-6.97716 z"
       id="path1134-9-4"
       inkscape:connector-curvature="0" />
  </g>
</svg>
